<svg xmlns="http://www.w3.org/2000/svg" version="1.1" xmlns:xlink="http://www.w3.org/1999/xlink" xmlns:svgjs="http://svgjs.dev/svgjs" width="1000" height="1125" viewBox="0 0 1000 1125"><g transform="matrix(1,0,0,1,0,0)"><svg viewBox="0 0 320 360" data-background-color="#89939e" preserveAspectRatio="xMidYMid meet" height="1125" width="1000" xmlns="http://www.w3.org/2000/svg" xmlns:xlink="http://www.w3.org/1999/xlink"><g id="tight-bounds" transform="matrix(1,0,0,1,0,0)"><svg viewBox="0 0 320 360" height="360" width="320"><g><svg></svg></g><g><svg viewBox="0 0 320 360" height="360" width="320"><g><path xmlns="http://www.w3.org/2000/svg" d="M160 340c88.258 0 160-71.742 160-160 0-88.258-71.742-160-160-160-88.258 0-160 71.742-160 160 0 88.258 71.742 160 160 160zM165.161 329.368v-10.323c72.671-2.684 131.2-61.213 133.884-133.884h10.323c-2.684 78.452-65.755 141.523-144.207 144.207zM165.161 30.632c78.452 2.684 141.523 65.755 144.207 144.207h-10.323c-2.684-72.671-61.213-131.2-133.884-133.884zM289.032 180c0 71.123-57.91 129.032-129.032 129.032-71.123 0-129.032-57.91-129.032-129.032 0-71.123 57.91-129.032 129.032-129.032 71.123 0 129.032 57.91 129.032 129.032zM154.839 30.632v10.323c-72.671 2.684-131.2 61.213-133.884 133.884h-10.323c2.684-78.452 65.755-141.523 144.207-144.207zM20.955 185.161c2.684 72.671 61.213 131.2 133.884 133.884v10.323c-78.452-2.684-141.523-65.755-144.207-144.207z" fill="#001f3f" fill-rule="nonzero" stroke="none" stroke-width="1" stroke-linecap="butt" stroke-linejoin="miter" stroke-miterlimit="10" stroke-dasharray="" stroke-dashoffset="0" font-family="none" font-weight="none" font-size="none" text-anchor="none" style="mix-blend-mode: normal" data-fill-palette-color="tertiary"></path></g><g transform="matrix(1,0,0,1,64,124.38057914047465)"><svg viewBox="0 0 192 111.2388417190507" height="111.2388417190507" width="192"><g><svg viewBox="0 0 192 111.2388417190507" height="111.2388417190507" width="192"><g transform="matrix(1,0,0,1,0,68.75006686337397)"><svg viewBox="0 0 192 42.488774855676716" height="42.488774855676716" width="192"><g><svg viewBox="0 0 192 42.488774855676716" height="42.488774855676716" width="192"><g><svg viewBox="0 0 192 42.488774855676716" height="42.488774855676716" width="192"><g transform="matrix(1,0,0,1,0,0)"><svg width="192" viewBox="2.0799999237060547 -33.08000183105469 152.22999572753906 33.69000244140625" height="42.488774855676716" data-palette-color="#000000"><path d="M6.86-3.86Q4.64-5.98 3.36-8.96 2.08-11.94 2.08-15.49 2.08-19.04 3.27-22.22 4.47-25.39 6.69-27.81 8.91-30.22 12.06-31.65 15.21-33.08 19.12-33.08L19.12-33.08Q25.85-33.08 30.47-28.83L30.47-28.83Q35.4-24.29 35.4-16.58L35.4-16.58Q35.4-9.11 30.32-4.15L30.32-4.15Q27.2-1.1 22.88 0.05L22.88 0.05Q20.75 0.61 17.91 0.61 15.06 0.61 12.07-0.56 9.08-1.73 6.86-3.86ZM8.86-15.82L8.86-15.82Q8.86-13.55 9.62-11.65 10.38-9.74 11.72-8.37L11.72-8.37Q14.58-5.49 19.07-5.49L19.07-5.49Q23.34-5.49 25.93-8.25L25.93-8.25Q28.56-11.11 28.56-16.04L28.56-16.04Q28.56-20.68 26.05-23.78L26.05-23.78Q23.34-27.1 18.63-27.1L18.63-27.1Q14.06-27.1 11.38-23.73L11.38-23.73Q8.86-20.58 8.86-15.82ZM58.71-20.07L58.79-14.04Q57.61-14.16 55.76-14.16L55.76-14.16 48.36-14.16 48.36 0 41.67 0 41.67-32.64Q42.33-32.59 43.19-32.57L43.19-32.57 44.99-32.52Q46.85-32.47 48.85-32.47L48.85-32.47Q54.86-32.47 60.32-32.67L60.32-32.67Q60.06-30.52 60.06-26.93L60.06-26.93Q60.06-26.54 60.1-26.34L60.1-26.34 60.06-26.27Q58.76-26.64 56.44-26.64L56.44-26.64 48.36-26.64 48.36-19.92 55.49-19.92Q58.18-19.92 58.71-20.07L58.71-20.07ZM67.38 0L67.38-32.57Q69.82-32.47 70.33-32.47L70.33-32.47 72.09-32.47Q73.38-32.47 74.16-32.67L74.16-32.67 74.14 0 67.38 0ZM97.87-33.08L97.87-33.08Q102.43-33.08 105.66-31.49L105.66-31.49 105.66-24.02 105.61-23.97Q104.24-26.07 99.85-26.76L99.85-26.76Q98.55-26.98 96.57-26.98 94.6-26.98 92.69-26.23 90.79-25.49 89.57-24.12L89.57-24.12Q87.2-21.46 87.2-16.53L87.2-16.53Q87.2-10.79 90.2-7.98L90.2-7.98Q92.69-5.64 96.79-5.64L96.79-5.64Q101.43-5.64 104.31-7.62L104.31-7.62Q105.36-8.33 106.1-9.38L106.1-9.38 106.17-9.33 106.17-2.49Q102.43 0.61 96.11 0.61L96.11 0.61Q88.66 0.61 84.44-4.13L84.44-4.13Q80.39-8.64 80.39-16.09L80.39-16.09Q80.39-23.97 84.83-28.52L84.83-28.52Q89.32-33.08 97.87-33.08ZM113.08 0L113.08-32.57Q115.52-32.47 116.03-32.47L116.03-32.47 117.79-32.47Q119.08-32.47 119.86-32.67L119.86-32.67 119.84 0 113.08 0ZM133.68-7.03L131.38 0.2Q129.28 0 126.48 0L126.48 0 124.55 0 135.17-29.76Q135.88-31.76 135.88-32.09 135.88-32.42 135.85-32.5L135.85-32.5 135.88-32.54Q137.46-32.47 139.25-32.47L139.25-32.47Q140.71-32.47 142.76-32.52L142.76-32.52 142.79-32.47Q142.74-32.37 142.74-32.2L142.74-32.2Q142.74-31.74 143.47-29.74L143.47-29.74 154.31 0.07Q153.82 0.05 153.16 0.05L153.16 0.05Q153.16 0.05 151.89 0L151.89 0Q151.28 0 150.79 0L150.79 0 147.01 0 144.71-7.03 133.68-7.03ZM135.53-12.89L142.81-12.89 139.12-24.24 135.53-12.89Z" opacity="1" transform="matrix(1,0,0,1,0,0)" fill="#000000" class="undefined-text-0" data-fill-palette-color="primary" id="text-0"></path></svg></g></svg></g></svg></g></svg></g><g transform="matrix(1,0,0,1,66.64025657472739,0)"><svg viewBox="0 0 58.71948685054522 58.71948685054523" height="58.71948685054523" width="58.71948685054522"><g><svg></svg></g><g id="icon-0"><svg viewBox="0 0 58.71948685054522 58.71948685054523" height="58.71948685054523" width="58.71948685054522"><g><path xmlns="http://www.w3.org/2000/svg" d="M17.616 58.719c-9.729 0-17.616-7.887-17.616-17.615v-23.488c0-9.729 7.887-17.616 17.616-17.616h23.488c9.729 0 17.616 7.887 17.615 17.616v23.488c0 9.729-7.887 17.616-17.615 17.615z" fill="#000000" fill-rule="nonzero" stroke="none" stroke-width="1" stroke-linecap="butt" stroke-linejoin="miter" stroke-miterlimit="10" stroke-dasharray="" stroke-dashoffset="0" font-family="none" font-weight="none" font-size="none" text-anchor="none" style="mix-blend-mode: normal" data-fill-palette-color="accent"></path></g><g transform="matrix(1,0,0,1,10.96806342527261,12.908838167655396)"><svg viewBox="0 0 36.78336 32.90181051523444" height="32.90181051523444" width="36.78336"><g><svg xmlns:dc="http://purl.org/dc/elements/1.1/" xmlns:cc="http://creativecommons.org/ns#" xmlns:rdf="http://www.w3.org/1999/02/22-rdf-syntax-ns#" xmlns:svg="http://www.w3.org/2000/svg" xmlns="http://www.w3.org/2000/svg" version="1.1" viewBox="5 9.749794006347656 90.00514221191406 80.50738525390625" xml:space="preserve" x="0" y="0" height="32.90181051523444" width="36.78336" class="icon-c-0" data-fill-palette-color="quaternary" id="c-0"><path d="M56.125 9.75c-0.065 0.002-0.122 0.016-0.188 0.031l-10.249 2.313c-0.527 0.118-0.868 0.63-0.75 1.156l1.375 6.188c-4.865 2.363-8.805 6.093-11.469 10.593L28.781 28.125c-0.515-0.161-1.058 0.141-1.218 0.656l-3.125 10.031c-0.161 0.515 0.11 1.058 0.625 1.219l6.062 1.906c-0.173 2.463-0.004 4.999 0.531 7.532 0.11-0.007 0.203-0.024 0.313-0.032 4.25-0.469 8.577-0.08 12.656 1.125-0.522-1.057-0.918-2.205-1.188-3.406-1.834-8.159 3.279-16.26 11.438-18.094 1.02-0.229 2.057-0.324 3.063-0.343 7.042-0.136 13.426 4.674 15.031 11.812 1.443 6.418-1.396 12.8-6.657 16.125 2.969 0.342 5.908 0.751 8.75 1.625 1.735 0.296 3.238 1.269 4.313 2.594 0.812-1.01 1.528-2.073 2.187-3.187l6.063 1.875c0.515 0.161 1.058-0.11 1.219-0.625L92 48.875c0.161-0.515-0.141-1.058-0.656-1.219l-6.063-1.875c0.182-2.577 0.003-5.225-0.594-7.875-0.595-2.648-1.546-5.125-2.812-7.375l4.656-4.312c0.397-0.366 0.428-0.978 0.063-1.375l-7.125-7.719c-0.366-0.397-0.978-0.428-1.375-0.062l-4.688 4.312C69.072 18.447 63.909 16.771 58.5 16.719L57.094 10.5C56.99 10.039 56.579 9.741 56.125 9.75zM5 50.531L5 81.5l10.313 0-0.001-30.969-10.312 0z m30.438 1.438c-5.977-0.005-12.304 1.126-17.219 2.719l0 22c1.913 0.551 3.389 0.824 5.344 1.218 5.676 1.148 10.429 5.016 15.718 7.344 4.554 2.004 9.063 4.908 14.125 5 7.727 0.141 15.278-1.819 22.875-3.031 6.139-0.98 11.698-6.362 15.813-10.813 3.727-4.031 3.428-6.513 1.594-9.312-2.058-3.139-7.143-1.261-9.844 1.062-3.116 2.682-6.82 4.828-11.094 5.282-6.792 0.72-14.293 1.055-20.188-2.782 2.682-1.324 6.435-0.268 9.532-0.25 4.337 0.026 8.775 1.295 13.031 0.438 4.362-0.879 4.699-8.239 0.125-9.75C68.667 58.919 61.654 59.31 55.063 57.563 50.106 56.249 45.811 52.971 40.625 52.281 38.959 52.06 37.215 51.97 35.438 51.969zM10.156 74.875c1.25 0 2.281 1 2.281 2.25 0 1.25-1.031 2.25-2.281 2.25-1.25 0-2.25-1-2.25-2.25 0-1.25 1-2.25 2.25-2.25z" fill="#89939e" fill-opacity="1" fill-rule="evenodd" stroke="none" data-fill-palette-color="quaternary"></path></svg></g></svg></g></svg></g></svg></g><g></g></svg></g></svg></g></svg></g><defs></defs></svg><rect width="320" height="360" fill="none" stroke="none" visibility="hidden"></rect></g></svg></g></svg>