<?xml version="1.0" encoding="utf-8"?>
<!-- Generator: Adobe Illustrator 25.4.1, SVG Export Plug-In . SVG Version: 6.00 Build 0)  -->
<svg version="1.1" xmlns="http://www.w3.org/2000/svg" xmlns:xlink="http://www.w3.org/1999/xlink" x="0px" y="0px"
	 viewBox="0 0 730 790" style="enable-background:new 0 0 730 790;" xml:space="preserve">
<style type="text/css">
	.st0{display:none;opacity:0.36;fill:#939598;stroke:#000000;stroke-linecap:round;stroke-linejoin:round;stroke-miterlimit:10;}
	.st1{display:none;opacity:0.2;fill:none;stroke:#000000;stroke-linecap:round;stroke-linejoin:round;stroke-miterlimit:10;}
	.st2{display:none;}
	.st3{display:inline;}
	.st4{fill:#577289;}
	.st5{fill:#BCBEC0;stroke:#000000;stroke-linecap:round;stroke-linejoin:round;stroke-miterlimit:10;}
	.st6{fill:#99B0C1;}
	.st7{fill:#BBD7E9;}
	.st8{fill:#318FB1;}
	.st9{fill:#FFFFFF;}
	.st10{display:inline;fill:none;}
	.st11{display:inline;fill:#577289;}
	.st12{font-family:'CenturyGothic';}
	.st13{font-size:80px;}
	.st14{letter-spacing:40;}
	.st15{fill:#BCBEC0;}
	.st16{fill:#939598;}
	.st17{fill:#D1D3D4;}
</style>
<g id="outliner">
	<path class="st0" d="M317.92,138.45c-144.46,0-261.57,115.23-261.57,257.38c0,142.14,117.11,257.37,261.57,257.37
		c144.47,0,261.58-115.23,261.58-257.37C579.5,253.68,462.39,138.45,317.92,138.45z M388.75,591.85
		c-67.27,0-121.79-85.39-121.79-190.73c0-105.33,54.52-190.72,121.79-190.72c67.26,0,121.78,85.39,121.78,190.72
		C510.53,506.46,456.01,591.85,388.75,591.85z"/>
	<ellipse class="st1" cx="393.59" cy="447.78" rx="90.64" ry="143.93"/>
	
		<ellipse transform="matrix(0.9999 -0.0157 0.0157 0.9999 -6.5096 6.1483)" class="st1" cx="389.53" cy="418.95" rx="111.04" ry="172.78"/>
	<ellipse class="st1" cx="391.46" cy="432.53" rx="100.76" ry="159.32"/>
</g>
<g id="BACKGROUND" class="st2">
	<rect class="st3" width="730" height="790"/>
</g>
<g id="dollar_4">
	<path class="st4" d="M420.8,385.81l-96.35-122.14c-47.16,166.6-42.25,303.46,21.39,340.07c9.28,5.34,20.84,9.14,35.47,9.9
		c19-13.64,38-27.27,57.01-40.91c-4.61-0.95-11.28-2.87-18.3-7.13c-12.81-7.76-18.99-18.56-23.55-26.77
		c-2.01-3.62-10.4-19.21-13.53-44.24c0,0-5.79-46.18,14.32-82.94c5.29-9.68,12.16-16.59,12.16-16.59
		C413.7,390.74,417.82,387.74,420.8,385.81z"/>
	<path class="st5" d="M567.07,432.19"/>
</g>
<g id="dollar_3">
	<path class="st6" d="M395.05,387.61l-121.31-91.07c-28.1,146.3-4.84,269,64.92,305.65c11.19,5.88,25.14,10.36,42.67,11.44
		c19-13.64,38-27.27,57.01-40.91c-5.48-0.91-14.15-3.08-23.15-8.83c-1.91-1.22-8.99-5.89-17.15-16.39
		c-12.19-15.69-16.63-31.29-19.29-41.03c-1-3.66-5.36-20.14-5.14-42.47c0.1-9.8,0.43-27.96,8.31-49.67
		C386.11,402.73,391.17,393.71,395.05,387.61z"/>
</g>
<g id="dollar_2">
	<path class="st7" d="M375.32,397.3l-139.45-50.34c-23.39,101.64,3.1,197.16,67.67,240.85c14.42,9.75,39.61,22.93,77.77,25.82
		c19-13.64,38-27.27,57.01-40.91c-5.24-0.66-13.02-2.22-21.44-6.39c-3.48-1.72-18.86-9.74-33.18-34.87
		c-24.29-42.61-19.18-88.16-15.73-106.93C370.1,412.9,373.07,403.54,375.32,397.3z"/>
</g>
<g id="lower_hammer">
	<path class="st8" d="M529.87,548.08C529.87,548.08,529.87,548.08,529.87,548.08c-0.05,0.06-5.73,7.35-12.41,13.91
		c-36.22,35.55-85.85,54.32-136.15,51.64c-12.07-0.67-22.8-3.35-34.87-6.04c-8.05-2.01-15.43-4.69-22.8-7.38
		c-56.87-20.68-85.85-74.44-85.85-74.44c-6.79-13.05-14-29.54-19.65-49.2c-7.12-24.78-9.56-46.88-10.17-64.06
		c37.32-0.23,63.1-0.25,80.12-0.21c29.38,0.06,59.31,0.27,59.31,0.27c0.8-0.01,5.07,0.03,12.83,0.1
		c-2.68,14.1-3.19,25.97-3.06,34.63c0.13,9.81,1.1,17.52,2.01,24.81c1.46,11.68,2.27,18.19,4.67,26.48
		c3.86,13.36,9.31,22.66,13.49,29.68c5.85,9.83,11.27,18.98,21.86,27.97c4.69,3.98,12.33,10.35,24.2,13.95
		c6.51,1.97,12.29,2.34,14.92,2.51c6.42,0.43,11.03-0.09,18.21-0.92c11.78-1.38,20.71-3.46,23.89-4.24
		c10.15-2.47,17.63-5.13,23.04-7.07c3.09-1.11,5.95-2.29,11.69-4.62C519.96,553.92,529.86,548.07,529.87,548.08z"/>
</g>
<g id="upper_hammer">
	<path class="st8" d="M652.42,193.89c-6.73,3.04-13.14,3.79-17.88,3.88c-11.44-1.23-22.9-2.46-34.35-3.68
		c0.41,9.04,0.82,18.07,1.24,27.11c-2.53,2.91-5.18,5.86-7.93,8.84c-3.23,3.49-6.44,6.83-9.6,10c-2.6,3.14-6.46,8.37-9.6,15.54
		c-5.79,13.21-5.1,26.79-3.7,53.42c0.71,13.59,5.63,48.96,6.79,58.84c1.12,9.54,1.35,13.35,1.58,18.34
		c0.19,4.22,0.84,21.31-2.26,43.47c-5.53,39.51-19.45,69.82-22.15,75.59c-6.63,14.17-16.93,32.81-32.74,52.5
		c-16.16,8.1-40.32,18.67-71.04,26.4c-34.66,8.72-62.53,8.16-62.55,7.93c-0.02-0.18,16.97,0.56,35.87-8.26
		c13.49-6.3,22.88-15.1,26.24-18.3c6.9-6.57,11.4-12.65,15-17.53c3.08-4.17,8.11-11.4,12.81-20.28
		c9.46-17.88,12.85-33.63,15.93-47.98c3.6-16.76,4.88-31.17,5.32-41.74c1.12-24.34,0.44-36.89-0.25-43.46
		c-0.04-0.4-0.09-0.85-0.09-0.85c-0.37-3.4-1.47-12.83-3.92-25.45c-1.55-7.99-3.21-16.57-6.47-27.56
		c-3.87-13.07-6.16-20.8-11.56-30.32c-8.04-14.16-17.5-22.64-19.66-24.55c-11.49-10.08-23.31-15.2-31.37-17.86l-3.3-32.04
		c-4.03,2.74-9.75,7.32-14.99,14.38c-4.87,6.55-7.55,12.85-9.06,17.31c-6,0.21-15.54,1.29-26.22,5.85
		c-11.32,4.84-18.99,11.51-23.3,15.87c-0.23-19.28,1.94-57.21,23.17-98.1c16.41-31.6,37.56-52.18,51.43-63.69
		c0.03-0.4,0.05-0.8,0.08-1.2c0.13-2.07,0.26-4.14,0.39-6.21c12.02-10.26,27.33-21.68,46.08-32.48
		c20.88-11.99,40.4-19.95,56.59-25.31c17.91,5.53,35.8,11.05,53.7,16.59c11.19-6.28,22.39-12.56,33.57-18.85
		c5.07-2.13,11.6-3.89,18.98-3.22c27.59,2.52,49.52,37.6,51.6,68.98C686.42,150.14,676.8,182.84,652.42,193.89z"/>
	<g id="_x3C_Path_x3E__NAIL">
		<path class="st9" d="M371.98,275.24c0.53-4.86,1.37-9.68,2.51-14.4c1.14-4.7,2.55-9.38,4.37-13.86c1.8-4.47,3.85-8.83,6.29-12.97
			c2.42-4.14,5.2-8.03,8.27-11.66c-2.59,3.97-4.85,8.14-6.7,12.45c-1.86,4.3-3.32,8.77-4.53,13.28c-1.21,4.5-1.99,9.06-2.52,13.68
			c-0.53,4.6-0.75,9.22-0.69,13.82L371.98,275.24z"/>
	</g>
	<g id="_x3C_Path_x3E__LOWER">
		<path class="st9" d="M439.02,261.45c7.02-3.66,14-7.29,20.9-11.07c3.43-1.92,6.89-3.79,10.27-5.79c3.41-1.95,6.79-3.95,10.14-6.01
			c6.72-4.06,13.32-8.32,19.87-12.69c6.54-4.38,12.97-8.91,19.46-13.44c-5.69,5.5-11.78,10.58-18.1,15.35
			c-3.15,2.4-6.4,4.67-9.66,6.92c-3.29,2.21-6.63,4.35-10,6.42c-6.79,4.08-13.74,7.91-20.9,11.31
			C453.83,255.87,446.52,258.94,439.02,261.45z"/>
	</g>
	<g id="_x3C_Path_x3E__LEFT">
		<path class="st9" d="M423.1,229.85c-2.25-14.98-3.12-30.15-3.03-45.31c0.08-7.58,0.38-15.15,1-22.71
			c0.59-7.55,1.51-15.08,2.75-22.55c-0.47,7.56-0.86,15.1-1.19,22.64c-0.3,7.54-0.51,15.08-0.56,22.63
			c-0.08,7.54,0.02,15.09,0.19,22.63C422.47,214.74,422.75,222.29,423.1,229.85z"/>
	</g>
	<g id="_x3C_Path_x3E__RIGHT">
		<path class="st9" d="M528.67,191.96c-1.96-9.98-3.27-20.07-4.18-30.2c-0.49-5.06-0.77-10.14-1.06-15.22
			c-0.24-5.08-0.35-10.16-0.43-15.25c-0.01-5.09,0.04-10.17,0.19-15.25c0.2-5.08,0.4-10.16,0.81-15.23
			c0.74-10.14,1.9-20.25,3.71-30.26l-0.59,30.4c-0.04,5.06-0.16,10.11-0.14,15.16c-0.03,5.05-0.05,10.1,0.03,15.15
			c0,5.05,0.1,10.1,0.21,15.15c0.06,5.05,0.26,10.1,0.38,15.16L528.67,191.96z"/>
	</g>
	<g id="_x3C_Path_x3E__LOWER_SMALL">
		<path class="st9" d="M536.61,208.52l15.24,3.08c5.08,0.99,10.17,2,15.27,2.88c5.09,0.96,10.2,1.8,15.31,2.65l15.36,2.45
			c-2.59-0.2-5.17-0.47-7.75-0.74c-2.58-0.3-5.15-0.62-7.72-0.96c-5.14-0.69-10.26-1.54-15.38-2.42c-5.1-0.97-10.19-1.95-15.25-3.11
			C546.64,211.2,541.6,209.95,536.61,208.52z"/>
	</g>
	<g id="_x3C_Path_x3E__HEAD">
		<path class="st9" d="M622.2,192.92c-2.99-1.39-5.88-3.03-8.61-4.91c-1.37-0.93-2.7-1.92-3.99-2.97c-1.31-1.02-2.48-2.2-3.72-3.32
			c-4.79-4.61-8.82-10.02-12-15.88c-3.21-5.85-5.47-12.2-7.01-18.67c-1.58-6.47-2.36-13.14-2.67-19.75
			c-0.33-6.63-0.15-13.32,0.76-19.93c0.98-6.59,2.64-13.13,5.47-19.2c2.79-6.07,6.63-11.67,11.43-16.29
			c2.34-2.37,5.02-4.37,7.8-6.18c2.79-1.8,5.75-3.31,8.81-4.53c-5.93,2.86-11.48,6.6-15.92,11.41c-4.57,4.67-8.17,10.23-10.72,16.22
			c-2.53,6-4.2,12.35-5.07,18.82c-0.83,6.48-0.95,13.03-0.57,19.58c0.26,6.57,0.96,13.07,2.45,19.44c1.42,6.38,3.67,12.55,6.6,18.38
			c2.95,5.82,6.75,11.22,11.33,15.9C611.04,185.85,616.43,189.74,622.2,192.92z"/>
	</g>
	<g id="_x3C_Path_x3E__REFLECTION">
		<path class="st9" d="M566.81,93.48c-4.08,5.33-6.65,11.63-8.25,18.07c-1.6,6.46-2.25,13.1-2.31,19.75l-1.95-0.08
			c0.39-6.73,1.38-13.47,3.32-19.93C559.55,104.84,562.46,98.6,566.81,93.48z"/>
	</g>
	<g id="_x3C_Path_x3E__SHADE">
		<path class="st9" d="M564.16,180.64c11.06,6.64,23.37,11.15,36.07,13.2l-0.08,0.49C587.41,192.11,575.13,187.43,564.16,180.64z"/>
	</g>
</g>
<g id="OFFICIA" class="st2">
	<rect x="62.34" y="674.84" class="st10" width="605.94" height="127.33"/>
	<text transform="matrix(1 0 0 1 91.5602 733.7161)" class="st11 st12 st13 st14">OFFICIA</text>
</g>
<g id="main_shape">
</g>
<g id="dollar_face">
	<ellipse class="st15" cx="302.26" cy="513.09" rx="53.05" ry="26.53"/>
	<ellipse class="st16" cx="287.3" cy="452.71" rx="18.99" ry="9.49"/>
	<ellipse class="st16" cx="336.94" cy="568.56" rx="11.77" ry="5.89"/>
</g>
<g id="amount_2" class="st2">
	<g class="st3">
		<g>
			<g>
				<path class="st17" d="M316.94,580.26c1.52,1.03,2.29,1.54,3.86,2.57c-9.34,2-13.93,2.99-22.94,4.9
					c0.02,0.01,0.04,0.02,0.06,0.03c2.54,0.7,3.82,1.05,6.38,1.75c-1.12,0.54-1.67,0.81-2.76,1.34c-3.63-0.99-5.43-1.49-9.02-2.48
					c-1.5-0.85-2.25-1.28-3.71-2.14C297.97,584.31,307.36,582.31,316.94,580.26z"/>
				<path class="st17" d="M298.29,580.38c-8.68,1.84-17.12,1.59-21.64-1.32c-4.69-3.04,0.62-5.62,9.04-7.37
					c10.06-2.08,17.84-1.7,21.46,1.11C311.19,575.92,306.29,578.71,298.29,580.38z M302.45,573.74c-1.58-1.2-6.21-0.98-13.2,0.48
					c-6.74,1.4-9.88,2.74-8.07,3.95c1.66,1.1,6.23,1.09,13.15-0.36c6.9-1.45,9.7-2.89,8.15-4.05
					C302.47,573.75,302.46,573.75,302.45,573.74z"/>
				<path class="st17" d="M284.36,570.44c-9.24,1.91-17.71,1.74-21.45-1.06c-3.88-2.92,2.18-5.45,11.11-7.23
					c10.67-2.1,18.36-1.85,21.25,0.81C298.51,565.91,292.87,568.7,284.36,570.44z M290.31,563.91c-1.27-1.14-5.97-0.88-13.39,0.61
					c-7.16,1.43-10.69,2.77-9.2,3.93c1.37,1.05,5.98,0.99,13.34-0.5c7.33-1.49,10.52-2.92,9.27-4.02
					C290.32,563.92,290.31,563.92,290.31,563.91z"/>
			</g>
		</g>
	</g>
</g>
<g id="amount_1" class="st2">
	<g class="st3">
		<g>
			<g>
				<path class="st17" d="M140.83,419.51c0.44,1.44,0.68,2.15,1.17,3.58c-19.52,0.28-39.03,0.53-58.55,0.76
					c0.01,0.02,0.01,0.03,0.02,0.05c3.04,1.27,4.57,1.9,7.65,3.16c-3.84,0.36-5.76,0.54-9.59,0.91c-4.3-1.78-6.43-2.68-10.64-4.48
					c-0.46-1.23-0.67-1.85-1.08-3.09C93.48,420.14,117.15,419.84,140.83,419.51z"/>
				<path class="st17" d="M104.31,415.86c-9.53,0.09-37.93-2-38.35-5.93c-0.4-3.8,27.39-6.51,35.47-6.64
					c10.66-0.15,37.68,2.17,37.93,5.84C139.63,412.99,113.75,415.78,104.31,415.86z M128.33,409.23c-0.3-1.71-9.46-2.45-26.15-2.23
					c-16.11,0.21-25.53,1.1-25.2,2.85c0.3,1.59,9.2,2.51,26.15,2.31c16.85-0.21,25.5-1.25,25.2-2.9
					C128.33,409.24,128.33,409.24,128.33,409.23z"/>
				<path class="st17" d="M101.83,401.54c-9.29,0.08-37.46-2.06-37.22-5.88c0.25-3.84,28.31-6.51,36.64-6.63
					c10.45-0.16,37.08,2.23,36.8,5.84C137.75,398.75,111.49,401.45,101.83,401.54z M127.02,394.93c0-1.7-9.01-2.45-25.7-2.23
					c-16.12,0.21-25.68,1.12-25.68,2.85c0,1.59,8.72,2.49,25.69,2.28c16.88-0.21,25.69-1.23,25.69-2.88
					C127.02,394.95,127.02,394.94,127.02,394.93z"/>
			</g>
		</g>
	</g>
</g>
</svg>
