<?xml version="1.0" encoding="utf-8"?>
<!-- Generator: Adobe Illustrator 25.4.1, SVG Export Plug-In . SVG Version: 6.00 Build 0)  -->
<svg version="1.1" xmlns="http://www.w3.org/2000/svg" xmlns:xlink="http://www.w3.org/1999/xlink" x="0px" y="0px"
	 viewBox="0 0 730 790" style="enable-background:new 0 0 730 790;" xml:space="preserve">
<style type="text/css">
	.st0{fill:#BCBEC0;}
	.st1{fill:#BCBEC0;stroke:#000000;stroke-linecap:round;stroke-linejoin:round;stroke-miterlimit:10;}
	.st2{fill:#A7A9AC;}
	.st3{fill:#808285;}
	.st4{fill:#58595B;}
	.st5{fill:#FFFFFF;}
	.st6{fill:none;stroke:#FFFFFF;stroke-linejoin:round;stroke-miterlimit:10;}
	.st7{fill:none;}
	.st8{font-family:'CenturyGothic';}
	.st9{font-size:80px;}
	.st10{letter-spacing:40;}
	.st11{fill:#939598;}
	.st12{display:none;opacity:0.36;fill:#939598;stroke:#000000;stroke-linecap:round;stroke-linejoin:round;stroke-miterlimit:10;}
	.st13{display:none;opacity:0.2;fill:none;stroke:#000000;stroke-linecap:round;stroke-linejoin:round;stroke-miterlimit:10;}
	.st14{display:none;}
	.st15{display:inline;}
	.st16{fill:#D1D3D4;}
</style>
<g id="dollar_4">
	<path class="st0" d="M361.1,313.38L217.44,131.26c-70.32,248.4-63,452.47,31.9,507.06c13.83,7.96,31.07,13.63,52.89,14.76
		c28.33-20.33,56.67-40.67,85-61c-6.87-1.41-16.82-4.28-27.29-10.63c-19.11-11.58-28.31-27.68-35.11-39.92
		c-3-5.4-15.5-28.65-20.18-65.96c0,0-8.63-68.85,21.36-123.67c7.89-14.43,18.13-24.74,18.13-24.74
		C350.52,320.73,356.66,316.26,361.1,313.38z"/>
	<path class="st1" d="M579.21,382.54"/>
</g>
<g id="dollar_3">
	<path class="st2" d="M322.71,316.07L141.83,180.28c-41.89,218.14-7.21,401.09,96.79,455.74c16.69,8.77,37.48,15.45,63.62,17.06
		c28.33-20.33,56.67-40.67,85-61c-8.17-1.36-21.1-4.6-34.52-13.16c-2.85-1.82-13.41-8.78-25.58-24.44
		c-18.18-23.39-24.79-46.66-28.77-61.18c-1.49-5.46-7.99-30.03-7.66-63.32c0.15-14.62,0.65-41.7,12.39-74.06
		C309.38,338.61,316.93,325.16,322.71,316.07z"/>
</g>
<g id="dollar_2">
	<path class="st3" d="M293.3,330.51L85.37,255.45c-34.88,151.56,4.62,293.98,100.91,359.12c21.5,14.55,59.05,34.18,115.96,38.5
		c28.33-20.33,56.67-40.67,85-61c-7.81-0.98-19.41-3.31-31.97-9.53c-5.19-2.57-28.12-14.52-49.48-51.99
		c-36.22-63.53-28.6-131.45-23.45-159.44C285.52,353.77,289.95,339.82,293.3,330.51z"/>
</g>
<g id="hammer">
	<path class="st4" d="M652.42,193.89c-6.73,3.04-13.14,3.79-17.88,3.88c-11.44-1.23-22.9-2.46-34.35-3.68
		c0.41,9.04,0.82,18.07,1.24,27.11c-2.53,2.91-5.18,5.86-7.93,8.84c-3.23,3.49-6.44,6.83-9.6,10c-2.6,3.14-6.46,8.37-9.6,15.54
		c-5.79,13.21-5.1,26.79-3.7,53.42c0.71,13.59,5.63,48.96,6.79,58.84c0.44,3.74,1.17,10.11,1.58,18.34
		c0.33,6.84,0.48,15.74-0.13,26.2c-13.11-0.14-65.56-0.34-78.42-0.29c-0.19-4.61-0.55-10.59-1.27-17.57
		c-0.25-2.36-1.31-12.39-4.01-26.3c-1.55-7.99-3.21-16.57-6.47-27.56c-3.87-13.07-6.16-20.8-11.56-30.32
		c-8.04-14.16-17.5-22.64-19.66-24.55c-11.49-10.08-23.31-15.2-31.37-17.86l-3.3-32.04c-4.57,3.67-9.77,8.4-14.99,14.38
		c-5.54,6.35-9.71,12.49-12.81,17.76c-5.16,0.38-12.18,1.46-19.99,4.41c-9.98,3.77-17.16,9.04-21.6,12.88
		c-1.32-16-2.24-53.83,19.01-94.12c16.3-30.92,38.38-49.49,51.11-58.69c0.26-4.12,0.52-8.27,0.78-12.4
		c12.02-10.26,27.33-21.68,46.08-32.48c20.88-11.99,40.4-19.95,56.59-25.31c17.91,5.53,35.8,11.05,53.7,16.59
		c11.19-6.28,22.39-12.56,33.57-18.85c5.07-2.13,11.6-3.89,18.98-3.22c27.59,2.52,49.52,37.6,51.6,68.98
		C686.42,150.14,676.8,182.84,652.42,193.89z"/>
	<path class="st4" d="M759.23,243.83"/>
	<path class="st4" d="M500.41,411.59h78.48c-0.01,0.09-0.01,0.17-0.02,0.26c-2.13,28.83-9.43,57.58-20.64,85.22c-13,30-30,56-53,79
		c-54,53-128,81-203,77c-18-1-34-5-52-9c-12-3-23-7-34-11c-84.79-30.83-128-111-128-111c-10.13-19.46-20.87-44.04-29.3-73.36
		c-10.62-36.95-14.25-69.9-15.16-95.51c55.65-0.35,94.08-0.37,119.46-0.32c43.8,0.09,88.44,0.41,88.44,0.41
		c1.19-0.01,7.56,0.04,19.13,0.15c-3.99,21.02-4.75,38.72-4.57,51.63c0.2,14.63,1.64,26.13,3,37c2.18,17.42,3.39,27.12,6.97,39.48
		c5.75,19.92,13.88,33.79,20.12,44.26c8.72,14.65,16.81,28.3,32.59,41.71c6.99,5.94,18.38,15.43,36.08,20.8
		c11.07,3.35,19.98,3.69,22.24,3.75c6.88-0.1,16.92-0.98,28.23-4.83c27.77-9.45,43.13-30,51.75-41.86
		c17.21-23.67,22.57-46.83,25.92-61.36c4.21-18.3,5.59-37.06,6.25-46.05C500.17,427.24,500.38,418.18,500.41,411.59z"/>
	<g>
		<path class="st4" d="M375.92,275.16c0.13-6.03,0.86-14.72,3.6-24.52c3.14-11.23,7.64-19.31,10.86-24.24"/>
		<path class="st5" d="M372.42,275.08c0.79-8.86,2.67-17.57,5.68-25.8c3-8.23,7.1-16.01,12.29-22.88
			c-4.21,7.51-7.14,15.6-8.93,23.85c-1.8,8.25-2.43,16.68-2.04,24.98L372.42,275.08z"/>
	</g>
	<g>
		<path class="st5" d="M439.02,261.45c7.02-3.66,14-7.29,20.9-11.07c3.43-1.92,6.89-3.79,10.27-5.79c3.41-1.95,6.79-3.95,10.14-6.01
			c6.72-4.06,13.32-8.32,19.87-12.69c6.54-4.38,12.97-8.91,19.46-13.44c-5.69,5.5-11.78,10.58-18.1,15.35
			c-3.15,2.4-6.4,4.67-9.66,6.92c-3.29,2.21-6.63,4.35-10,6.42c-6.79,4.08-13.74,7.91-20.9,11.31
			C453.83,255.87,446.52,258.94,439.02,261.45z"/>
	</g>
	<g>
		<path class="st5" d="M423.1,229.85c-2.25-14.98-3.12-30.15-3.03-45.31c0.08-7.58,0.38-15.15,1-22.71
			c0.59-7.55,1.51-15.08,2.75-22.55c-0.47,7.56-0.86,15.1-1.19,22.64c-0.3,7.54-0.51,15.08-0.56,22.63
			c-0.08,7.54,0.02,15.09,0.19,22.63C422.47,214.74,422.75,222.29,423.1,229.85z"/>
	</g>
	<g>
		<path class="st5" d="M528.67,191.96c-1.96-9.98-3.27-20.07-4.18-30.2c-0.49-5.06-0.77-10.14-1.06-15.22
			c-0.24-5.08-0.35-10.16-0.43-15.25c-0.01-5.09,0.04-10.17,0.19-15.25c0.2-5.08,0.4-10.16,0.81-15.23
			c0.74-10.14,1.9-20.25,3.71-30.26l-0.59,30.4c-0.04,5.06-0.16,10.11-0.14,15.16c-0.03,5.05-0.05,10.1,0.03,15.15
			c0,5.05,0.1,10.1,0.21,15.15c0.06,5.05,0.26,10.1,0.38,15.16L528.67,191.96z"/>
	</g>
	<path class="st6" d="M692.53-140.42"/>
	<g>
		<path class="st5" d="M536.61,208.52l15.24,3.08c5.08,0.99,10.17,2,15.27,2.88c5.09,0.96,10.2,1.8,15.31,2.65l15.36,2.45
			c-2.59-0.2-5.17-0.47-7.75-0.74c-2.58-0.3-5.15-0.62-7.72-0.96c-5.14-0.69-10.26-1.54-15.38-2.42c-5.1-0.97-10.19-1.95-15.25-3.11
			C546.64,211.2,541.6,209.95,536.61,208.52z"/>
	</g>
	<g>
		<path class="st5" d="M622.2,192.92c-2.99-1.39-5.88-3.03-8.61-4.91c-1.37-0.93-2.7-1.92-3.99-2.97c-1.31-1.02-2.48-2.2-3.72-3.32
			c-4.79-4.61-8.82-10.02-12-15.88c-3.21-5.85-5.47-12.2-7.01-18.67c-1.58-6.47-2.36-13.14-2.67-19.75
			c-0.33-6.63-0.15-13.32,0.76-19.93c0.98-6.59,2.64-13.13,5.47-19.2c2.79-6.07,6.63-11.67,11.43-16.29
			c2.34-2.37,5.02-4.37,7.8-6.18c2.79-1.8,5.75-3.31,8.81-4.53c-5.93,2.86-11.48,6.6-15.92,11.41c-4.57,4.67-8.17,10.23-10.72,16.22
			c-2.53,6-4.2,12.35-5.07,18.82c-0.83,6.48-0.95,13.03-0.57,19.58c0.26,6.57,0.96,13.07,2.45,19.44c1.42,6.38,3.67,12.55,6.6,18.38
			c2.95,5.82,6.75,11.22,11.33,15.9C611.04,185.85,616.43,189.74,622.2,192.92z"/>
	</g>
	<g>
		<path class="st5" d="M566.81,93.48c-4.08,5.33-6.65,11.63-8.25,18.07c-1.6,6.46-2.25,13.1-2.31,19.75l-1.95-0.08
			c0.39-6.73,1.38-13.47,3.32-19.93C559.55,104.84,562.46,98.6,566.81,93.48z"/>
	</g>
	<g>
		<path class="st5" d="M564.16,180.64c11.06,6.64,23.37,11.15,36.07,13.2l-0.08,0.49C587.41,192.11,575.13,187.43,564.16,180.64z"/>
	</g>
	<rect x="62.34" y="674.84" class="st7" width="605.94" height="127.33"/>
	<text transform="matrix(1 0 0 1 91.5602 733.7161)" class="st4 st8 st9 st10">OFFICIA</text>
</g>
<g id="main_shape">
</g>
<g id="dollar_face">
	<ellipse class="st0" cx="184.36" cy="503.16" rx="79.11" ry="39.55"/>
	<ellipse class="st11" cx="146.36" cy="415.07" rx="28.31" ry="14.16"/>
	<ellipse class="st11" cx="236.07" cy="585.87" rx="17.55" ry="8.78"/>
</g>
<g id="outliner">
	<path class="st12" d="M317.92,138.45c-144.46,0-261.57,115.23-261.57,257.38c0,142.14,117.11,257.37,261.57,257.37
		c144.47,0,261.58-115.23,261.58-257.37C579.5,253.68,462.39,138.45,317.92,138.45z M388.75,591.85
		c-67.27,0-121.79-85.39-121.79-190.73c0-105.33,54.52-190.72,121.79-190.72c67.26,0,121.78,85.39,121.78,190.72
		C510.53,506.46,456.01,591.85,388.75,591.85z"/>
	<ellipse class="st13" cx="393.59" cy="447.78" rx="90.64" ry="143.93"/>
	
		<ellipse transform="matrix(0.9999 -0.0157 0.0157 0.9999 -6.5096 6.1483)" class="st13" cx="389.53" cy="418.95" rx="111.04" ry="172.78"/>
	<ellipse class="st13" cx="391.46" cy="432.53" rx="100.76" ry="159.32"/>
</g>
<g id="amount_2" class="st14">
	<g class="st15">
		<g>
			<g>
				<path class="st16" d="M316.97,580.24c1.51,1.03,2.29,1.54,3.85,2.57c-9.34,2-13.93,2.99-22.94,4.9
					c0.02,0.01,0.04,0.02,0.06,0.03c2.54,0.7,3.82,1.05,6.38,1.75c-1.12,0.54-1.67,0.81-2.76,1.34c-3.63-0.99-5.43-1.49-9.02-2.48
					c-1.5-0.85-2.25-1.28-3.71-2.14C298,584.29,307.39,582.29,316.97,580.24z"/>
				<path class="st16" d="M298.32,580.36c-8.68,1.84-17.12,1.59-21.64-1.32c-4.69-3.05,0.62-5.62,9.04-7.38
					c10.06-2.08,17.84-1.7,21.46,1.11C311.21,575.9,306.31,578.69,298.32,580.36z M302.48,573.72c-1.58-1.2-6.21-0.98-13.2,0.48
					c-6.74,1.41-9.88,2.74-8.07,3.95c1.66,1.1,6.23,1.09,13.15-0.36c6.9-1.45,9.7-2.89,8.15-4.05
					C302.49,573.73,302.49,573.73,302.48,573.72z"/>
				<path class="st16" d="M284.39,570.42c-9.24,1.91-17.7,1.75-21.45-1.06c-3.88-2.92,2.18-5.45,11.11-7.23
					c10.67-2.1,18.36-1.85,21.25,0.81C298.54,565.89,292.89,568.68,284.39,570.42z M290.33,563.89c-1.27-1.14-5.97-0.88-13.39,0.61
					c-7.16,1.43-10.69,2.77-9.2,3.93c1.38,1.05,5.98,0.99,13.34-0.5c7.33-1.49,10.52-2.92,9.27-4.02
					C290.34,563.9,290.34,563.9,290.33,563.89z"/>
			</g>
		</g>
	</g>
</g>
<g id="amount_1" class="st14">
	<g class="st15">
		<g>
			<g>
				<path class="st16" d="M140.88,419.52c0.44,1.44,0.68,2.15,1.17,3.58c-19.52,0.28-39.03,0.53-58.55,0.76
					c0.01,0.02,0.01,0.03,0.02,0.05c3.04,1.27,4.57,1.9,7.65,3.16c-3.84,0.36-5.76,0.54-9.59,0.91c-4.3-1.78-6.43-2.68-10.64-4.48
					c-0.46-1.23-0.67-1.85-1.08-3.09C93.53,420.15,117.2,419.85,140.88,419.52z"/>
				<path class="st16" d="M104.35,415.86c-9.53,0.09-37.93-2-38.35-5.93c-0.4-3.8,27.39-6.51,35.47-6.64
					c10.66-0.15,37.68,2.17,37.93,5.85C139.68,413,113.79,415.79,104.35,415.86z M128.38,409.23c-0.3-1.71-9.46-2.45-26.15-2.23
					c-16.11,0.21-25.53,1.1-25.2,2.85c0.3,1.59,9.2,2.51,26.15,2.31c16.86-0.2,25.5-1.25,25.2-2.9
					C128.38,409.25,128.38,409.24,128.38,409.23z"/>
				<path class="st16" d="M101.88,401.54c-9.29,0.08-37.46-2.06-37.22-5.88c0.25-3.84,28.31-6.51,36.64-6.63
					c10.45-0.16,37.08,2.23,36.8,5.84C137.8,398.76,111.54,401.46,101.88,401.54z M127.07,394.94c0-1.7-9.01-2.45-25.7-2.23
					c-16.11,0.21-25.68,1.12-25.68,2.85c0,1.59,8.72,2.49,25.69,2.28c16.88-0.21,25.69-1.23,25.69-2.88
					C127.07,394.96,127.07,394.95,127.07,394.94z"/>
			</g>
		</g>
	</g>
</g>
</svg>
